<svg width="68" height="68" viewBox="0 0 68 68" fill="none" xmlns="http://www.w3.org/2000/svg">
<path d="M42.5 11.3333C48.5116 11.3333 54.2769 13.7213 58.5277 17.9722C62.7786 22.223 65.1667 27.9883 65.1667 33.9999C65.1667 40.0115 62.7786 45.7768 58.5277 50.0277C54.2769 54.2785 48.5116 56.6666 42.5 56.6666C36.4884 56.6666 30.7231 54.2785 26.4722 50.0277C22.2214 45.7768 19.8333 40.0115 19.8333 33.9999C19.8333 27.9883 22.2214 22.223 26.4722 17.9722C30.7231 13.7213 36.4884 11.3333 42.5 11.3333ZM42.5 50.9999C47.0087 50.9999 51.3327 49.2089 54.5208 46.0207C57.7089 42.8326 59.5 38.5086 59.5 33.9999C59.5 29.4912 57.7089 25.1672 54.5208 21.9791C51.3327 18.791 47.0087 16.9999 42.5 16.9999C37.9913 16.9999 33.6673 18.791 30.4792 21.9791C27.291 25.1672 25.5 29.4912 25.5 33.9999C25.5 38.5086 27.291 42.8326 30.4792 46.0207C33.6673 49.2089 37.9913 50.9999 42.5 50.9999ZM8.49998 33.9999C8.49985 37.5131 9.58997 40.9397 11.6199 43.8071C13.6499 46.6744 16.5197 48.8411 19.8333 50.0083V55.9299C10.0583 53.4082 2.83331 44.5683 2.83331 33.9999C2.83331 23.4316 10.0583 14.5916 19.8333 12.0699V17.9916C13.2316 20.3149 8.49998 26.6049 8.49998 33.9999Z" fill="white"/>
</svg>
