<svg width="19" height="19" viewBox="0 0 19 19" fill="none" xmlns="http://www.w3.org/2000/svg">
<path d="M9.5 16.625C7.52083 16.625 5.83854 15.9323 4.45313 14.5469C3.06771 13.1615 2.375 11.4792 2.375 9.5C2.375 7.52083 3.06771 5.83854 4.45312 4.45312C5.83854 3.06771 7.52083 2.375 9.5 2.375C9.68472 2.375 9.86628 2.3816 10.0447 2.39479C10.2231 2.40799 10.3978 2.42778 10.5688 2.45417C10.0278 2.83681 9.59553 3.33503 9.272 3.94883C8.94847 4.56264 8.78697 5.22553 8.7875 5.9375C8.7875 7.125 9.20313 8.13438 10.0344 8.96562C10.8656 9.79687 11.875 10.2125 13.0625 10.2125C13.7882 10.2125 14.4545 10.0507 15.0615 9.72721C15.6684 9.40368 16.1632 8.97169 16.5458 8.43125C16.5722 8.60278 16.592 8.77747 16.6052 8.95533C16.6184 9.13319 16.625 9.31475 16.625 9.5C16.625 11.4792 15.9323 13.1615 14.5469 14.5469C13.1615 15.9323 11.4792 16.625 9.5 16.625Z" fill="black"/>
</svg>
