<svg width="13" height="25" viewBox="0 0 13 25" fill="none" xmlns="http://www.w3.org/2000/svg">
<path d="M12.11 22.354C12.4273 22.354 12.586 22.5127 12.586 22.83V23.986C12.586 24.3033 12.4273 24.462 12.11 24.462H1.264C0.946667 24.462 0.788 24.3033 0.788 23.986V22.83C0.788 22.5127 0.946667 22.354 1.264 22.354H5.616V9.536H1.638C1.32067 9.536 1.162 9.37733 1.162 9.06V7.904C1.162 7.58667 1.32067 7.428 1.638 7.428H7.588C7.90533 7.428 8.064 7.58667 8.064 7.904V22.354H12.11ZM4.562 1.92C4.562 1.39867 4.74333 0.956666 5.106 0.593999C5.49133 0.208665 5.94467 0.015998 6.466 0.015998C6.98733 0.015998 7.42933 0.208665 7.792 0.593999C8.17733 0.956666 8.37 1.39867 8.37 1.92C8.37 2.44133 8.17733 2.89467 7.792 3.28C7.42933 3.64267 6.98733 3.824 6.466 3.824C5.94467 3.824 5.49133 3.64267 5.106 3.28C4.74333 2.89467 4.562 2.44133 4.562 1.92Z" fill="white"/>
</svg>
