<svg width="16" height="16" viewBox="0 0 16 16" fill="none" xmlns="http://www.w3.org/2000/svg">
<g clip-path="url(#clip0_16_135)">
<path d="M4.00004 7.99996C4.00004 6.93909 4.42147 5.92168 5.17161 5.17153C5.92176 4.42139 6.93918 3.99996 8.00004 3.99996C9.06091 3.99996 10.0783 4.42139 10.8285 5.17153C11.5786 5.92168 12 6.93909 12 7.99996C12 9.06082 11.5786 10.0782 10.8285 10.8284C10.0783 11.5785 9.06091 12 8.00004 12C6.93918 12 5.92176 11.5785 5.17161 10.8284C4.42147 10.0782 4.00004 9.06082 4.00004 7.99996ZM15.3334 7.33329L15.3334 8.66663L13.3334 8.66663L13.3334 7.33329L15.3334 7.33329ZM2.66671 7.33329L2.66671 8.66662L0.666708 8.66662L0.666708 7.33329L2.66671 7.33329ZM12.714 2.34329L13.6567 3.28596L12.2427 4.69996L11.3 3.75729L12.714 2.34329ZM3.75737 11.3L4.70004 12.2426L3.28604 13.6566L2.34337 12.714L3.75737 11.3ZM13.6574 12.714L12.714 13.6566L11.3 12.2426L12.2427 11.3L13.6567 12.714L13.6574 12.714ZM4.70004 3.75729L3.75737 4.69996L2.34337 3.28596L3.28604 2.34329L4.70004 3.75729ZM8.66671 15.3333L7.33337 15.3333L7.33337 13.3333L8.66671 13.3333L8.66671 15.3333ZM8.66671 2.66663L7.33337 2.66663L7.33337 0.666626L8.66671 0.666626L8.66671 2.66663Z" fill="white"/>
</g>
<defs>
<clipPath id="clip0_16_135">
<rect width="16" height="16" fill="white" transform="translate(16) rotate(90)"/>
</clipPath>
</defs>
</svg>
