<svg width="61" height="60" viewBox="0 0 61 60" fill="none" xmlns="http://www.w3.org/2000/svg">
<path d="M30.5 10C27.3735 9.99728 24.2886 10.705 21.486 12.068C18.6833 13.4309 16.2387 15.4123 14.3426 17.8575L20.3333 23.75H5.08334V8.75001L10.7233 14.2975C13.1034 11.3921 16.1156 9.04863 19.5382 7.4396C22.9607 5.83056 26.7066 4.99691 30.5 5.00001C44.5376 5.00001 55.9167 16.1925 55.9167 30H50.8333C50.8333 24.6957 48.6911 19.6086 44.8778 15.8579C41.0646 12.1071 35.8927 10 30.5 10ZM10.1667 30C10.1666 34.1825 11.4996 38.2598 13.9781 41.6583C16.4567 45.0567 19.956 47.6054 23.984 48.9457C28.0119 50.2861 32.3657 50.3506 36.4329 49.1302C40.5 47.9098 44.0759 45.466 46.6574 42.1425L40.6667 36.25H55.9167V51.25L50.2767 45.7025C47.8966 48.6079 44.8844 50.9514 41.4618 52.5604C38.0393 54.1695 34.2934 55.0031 30.5 55C16.4624 55 5.08334 43.8075 5.08334 30H10.1667Z" fill="white"/>
</svg>
