<svg width="68" height="68" viewBox="0 0 68 68" fill="none" xmlns="http://www.w3.org/2000/svg">
<path d="M21.25 31.1666C18.5112 31.1666 16.1737 30.1985 14.2375 28.2624C12.3014 26.3263 11.3334 23.9888 11.3334 21.2499C11.3334 18.511 12.3014 16.1735 14.2375 14.2374C16.1737 12.3013 18.5112 11.3333 21.25 11.3333C23.9889 11.3333 26.3264 12.3013 28.2625 14.2374C30.1987 16.1735 31.1667 18.511 31.1667 21.2499C31.1667 23.9888 30.1987 26.3263 28.2625 28.2624C26.3264 30.1985 23.9889 31.1666 21.25 31.1666ZM21.25 25.4999C22.4306 25.4999 23.4345 25.0863 24.2619 24.2589C25.0892 23.4316 25.5019 22.4286 25.5 21.2499C25.5 20.0694 25.0864 19.0654 24.259 18.2381C23.4317 17.4108 22.4287 16.998 21.25 16.9999C20.0695 16.9999 19.0655 17.4136 18.2382 18.2409C17.4109 19.0683 16.9982 20.0713 17 21.2499C17 22.4305 17.4137 23.4344 18.241 24.2618C19.0684 25.0891 20.0714 25.5018 21.25 25.4999ZM46.75 56.6666C44.0112 56.6666 41.6737 55.6985 39.7375 53.7624C37.8014 51.8263 36.8334 49.4888 36.8334 46.7499C36.8334 44.011 37.8014 41.6735 39.7375 39.7374C41.6737 37.8013 44.0112 36.8333 46.75 36.8333C49.4889 36.8333 51.8264 37.8013 53.7625 39.7374C55.6987 41.6735 56.6667 44.011 56.6667 46.7499C56.6667 49.4888 55.6987 51.8263 53.7625 53.7624C51.8264 55.6985 49.4889 56.6666 46.75 56.6666ZM46.75 50.9999C47.9306 50.9999 48.9345 50.5863 49.7619 49.7589C50.5892 48.9316 51.0019 47.9286 51 46.7499C51 45.5694 50.5864 44.5654 49.759 43.7381C48.9317 42.9108 47.9287 42.498 46.75 42.4999C45.5695 42.4999 44.5655 42.9136 43.7382 43.7409C42.9109 44.5682 42.4982 45.5713 42.5 46.7499C42.5 47.9305 42.9137 48.9344 43.741 49.7617C44.5684 50.5891 45.5714 51.0018 46.75 50.9999ZM15.3 56.6666L11.3334 52.6999L52.7 11.3333L56.6667 15.2999L15.3 56.6666Z" fill="white"/>
</svg>
