<svg width="1136" height="720" viewBox="0 0 1136 720" fill="none" xmlns="http://www.w3.org/2000/svg">
<g style="mix-blend-mode:screen" opacity="0.49">
<path d="M1103.53 0.824707L883.421 59.7908C875.889 61.8818 873.378 71.0822 878.818 76.5188L922.338 120.011L614.768 427.388H295.899L-78.6257 801.258V865.243H6.32236L339.001 532.774H657.87L996.825 194.451L1040.34 237.944C1045.78 243.38 1054.99 240.871 1057.08 233.343L1115.67 13.3707C1117.76 5.8431 1111.07 -0.84809 1103.53 1.24291V0.824707Z" fill="white"/>
<path d="M741.162 572.653L759.567 591.067L433.163 917.635H533.451L809.899 641.048L828.304 659.462C831.308 662.469 836.191 660.965 837.318 657.207L868.869 538.831C869.996 534.698 866.24 530.94 862.108 532.067L743.792 563.634C739.66 564.761 738.533 569.647 741.538 572.653H741.162Z" fill="white" fill-opacity="0.53"/>
<path d="M992.832 587.747L1013.34 608.239L450.922 1170.3H562.652L1069.41 663.859L1089.92 684.351C1093.26 687.697 1098.7 686.024 1099.96 681.842L1135.11 550.109C1136.37 545.509 1132.18 541.327 1127.58 542.581L995.762 577.71C991.158 578.965 989.903 584.401 993.251 587.747H992.832Z" fill="white"/>
<path d="M292.133 196.124L312.637 216.615L-78.6257 607.213V719.709L368.293 272.236L388.798 292.728C392.145 296.073 397.585 294.4 398.841 290.219L433.992 158.486C435.247 153.886 431.062 149.704 426.459 150.958L294.643 186.087C290.04 187.342 288.785 192.778 292.133 196.124Z" fill="white" fill-opacity="0.64"/>
</g>
</svg>
